<?xml version="1.0" standalone="no"?>
<!DOCTYPE svg PUBLIC "-//W3C//DTD SVG 20010904//EN"
 "http://www.w3.org/TR/2001/REC-SVG-20010904/DTD/svg10.dtd">
<svg version="1.0" xmlns="http://www.w3.org/2000/svg"
 width="1467.000000pt" height="476.000000pt" viewBox="0 0 1467.000000 476.000000"
 preserveAspectRatio="xMidYMid meet">

<g transform="translate(0.000000,476.000000) scale(0.100000,-0.100000)"
fill="#000000" stroke="none">
<path d="M8470 2700 l0 -1360 340 0 340 0 0 1028 c0 565 4 1020 9 1012 5 -8
125 -471 267 -1028 l258 -1012 310 0 311 0 259 1013 c142 556 262 1019 267
1027 5 8 9 -446 9 -1012 l0 -1028 340 0 340 0 0 1360 0 1360 -548 0 -549 0
-31 -117 c-17 -65 -110 -431 -207 -813 -98 -382 -180 -700 -184 -707 -3 -7
-98 344 -210 780 -112 436 -208 807 -213 825 l-9 32 -549 0 -550 0 0 -1360z"/>
<path d="M11770 2701 l0 -1361 420 0 420 0 0 505 0 505 298 -1 c327 -1 409 6
562 52 127 37 195 67 281 124 142 95 244 244 290 425 30 121 38 375 15 490
-36 175 -92 286 -202 395 -110 110 -231 163 -459 202 -74 13 -227 17 -857 20
l-768 5 0 -1361z m1205 799 c89 -13 184 -59 220 -106 65 -85 81 -191 44 -289
-57 -152 -179 -204 -481 -205 l-148 0 0 298 c0 164 3 302 7 305 10 11 279 8
358 -3z"/>
<path d="M1683 3915 c-106 -17 -165 -36 -298 -100 -287 -136 -481 -364 -584
-687 -41 -128 -47 -158 -67 -318 -56 -451 84 -911 358 -1182 76 -75 229 -181
329 -228 37 -17 122 -45 190 -62 116 -30 135 -32 299 -32 158 1 185 3 278 28
178 46 281 91 407 176 223 151 374 386 459 716 104 399 39 861 -166 1188 -158
252 -397 420 -693 488 -115 26 -390 33 -512 13z m462 -299 c265 -73 455 -270
554 -574 83 -256 87 -600 9 -851 -115 -372 -413 -600 -784 -601 -176 0 -326
42 -461 129 -276 177 -403 470 -403 926 0 159 50 417 105 540 95 215 308 381
565 441 77 18 336 12 415 -10z"/>
<path d="M3975 3214 c-133 -29 -255 -104 -332 -204 -21 -27 -41 -49 -45 -50
-5 0 -8 52 -8 115 l0 115 -135 0 -135 0 0 -1315 0 -1315 150 0 150 0 0 480 c0
264 2 480 5 480 3 0 19 -16 36 -35 45 -51 161 -124 241 -152 172 -60 381 -33
553 70 78 47 202 160 246 224 141 205 206 537 165 841 -53 388 -240 636 -551
734 -84 26 -250 32 -340 12z m236 -254 c119 -37 206 -113 267 -235 69 -138 85
-225 86 -460 1 -169 -2 -199 -22 -275 -70 -257 -209 -400 -418 -429 -97 -14
-147 -5 -239 43 -189 97 -295 329 -295 646 0 267 65 462 197 596 121 122 270
162 424 114z"/>
<path d="M5673 3216 c-336 -56 -573 -279 -657 -621 -31 -129 -38 -211 -33
-411 5 -232 17 -289 98 -444 124 -240 290 -365 556 -419 245 -50 507 -5 688
119 53 37 138 121 173 173 44 63 110 197 120 243 l9 41 -141 17 c-78 10 -148
19 -156 22 -11 3 -24 -16 -45 -64 -38 -90 -72 -138 -143 -203 -229 -213 -633
-117 -775 184 -30 62 -63 188 -73 275 l-7 62 677 0 676 0 -5 43 c-2 23 -7 89
-10 145 -12 238 -91 458 -212 592 -52 58 -164 145 -230 178 -131 68 -342 95
-510 68z m265 -261 c207 -49 316 -181 367 -446 l13 -69 -504 0 c-580 0 -516
-16 -488 118 61 296 322 465 612 397z"/>
<path d="M7530 3215 c-139 -32 -309 -140 -383 -243 l-32 -44 -3 131 -3 131
-134 0 -135 0 0 -925 0 -925 149 0 148 0 6 573 c3 377 9 592 17 632 42 215
108 305 277 375 90 38 172 47 255 30 180 -38 270 -128 297 -300 7 -40 11 -303
11 -687 l0 -623 150 0 150 0 0 654 c0 763 -4 813 -75 959 -56 114 -191 211
-350 252 -87 23 -265 28 -345 10z"/>
<path d="M13014 1640 c-27 -11 -72 -65 -80 -96 -4 -14 -4 -43 -1 -64 15 -116
153 -166 243 -88 79 70 66 196 -26 243 -31 16 -102 19 -136 5z m126 -23 c13
-7 35 -28 48 -47 69 -102 -51 -238 -163 -184 -92 43 -101 174 -16 227 31 20
96 22 131 4z"/>
<path d="M13010 1500 c0 -47 4 -80 10 -80 6 0 10 16 10 35 0 48 29 47 68 -2
37 -47 55 -37 19 11 -25 32 -25 34 -7 39 23 6 27 46 8 65 -7 7 -34 12 -60 12
l-48 0 0 -80z m95 35 c0 -16 -8 -21 -37 -23 -35 -3 -38 -1 -38 23 0 24 3 26
38 23 29 -2 37 -7 37 -23z"/>
<path d="M700 865 l0 -125 1190 0 1190 0 0 125 0 125 -1190 0 -1190 0 0 -125z"/>
<path d="M3850 865 l0 -125 5110 0 5110 0 0 125 0 125 -5110 0 -5110 0 0 -125z"/>
</g>
</svg>
