<?xml version="1.0" encoding="UTF-8" standalone="no"?>
<svg xmlns:rdf="http://www.w3.org/1999/02/22-rdf-syntax-ns#" xmlns="http://www.w3.org/2000/svg" version="1.1" xmlns:cc="http://creativecommons.org/ns#" xmlns:dc="http://purl.org/dc/elements/1.1/" viewBox="0 0 116.58 116.58" height="116.58" width="116.58">
 <g>
  <path d="m1.5898 58.229c0-31.348 25.411-56.759 56.759-56.759 31.346 0 56.758 25.411 56.758 56.759 0 31.346-25.411 56.757-56.758 56.757-31.348 0-56.759-25.411-56.759-56.757z" stroke="#000" stroke-miterlimit="3.864" stroke-width="1.06" fill="#fff"/>
  <path d="m41.722 100.57s-1.5587 1.6559-3.7012 1.4609c0 0 1.7522 1.3634 1.4609 3.5059 0 0 1.6545-1.6544 3.8945-1.2656 0 0-1.7523-1.7534-1.5586-3.1172l-0.0957-0.58399zm33.787 0.0977s0.09672 2.337-1.3633 3.4082c0 0 2.1435 0.00016 3.6035 1.7539 0 0-0.09859-2.4348 0.97266-3.6035 0 0-1.9477-0.29187-2.6289-1.2656l-0.58398-0.29297z" stroke="#000" stroke-miterlimit="3.864" stroke-width="0.39"/>
  <path d="m57.95 6.1094-0.02148 0.41406c0.48125 0.0463 0.77797 0.093878 0.88672 0.14258 0.0401 0.0188 0.06919 0.047784 0.08789 0.083984 0.0418 0.09125 0.05583 0.33828 0.04883 0.73828-0.0163 0.59875-0.0243 0.94386-0.0293 1.0352l-0.125 2.3887c-0.015 0.27625-0.0575 0.71867-0.125 1.3262-0.0363 0.33125-0.06981 0.57125-0.10352 0.71875-0.16375 0.0975-0.37125 0.18909-0.625 0.27539l-0.01563 0.28516c1.2962 0.0363 1.9938 0.0575 2.0938 0.0625 0.37625 0.02 1.0597 0.06411 2.0547 0.13281l1.0078 0.07617c0.4925 0.0263 0.87383 0.03042 1.1426 0.01172l0.08398-0.06641c0.025-0.4525 0.09977-1.0264 0.22852-1.7227l-0.51172-0.02539c-0.1075 0.48375-0.20331 0.81047-0.28711 0.98047-0.0275 0.05-0.05594 0.082-0.08594 0.0957-0.09 0.0425-0.32383 0.06627-0.70508 0.07226-0.38 0.005-0.79664-0.0036-1.2441-0.02734-0.46-0.02375-0.85766-0.06133-1.1914-0.11133-0.0072-0.17875-0.0027-0.39188 0.0098-0.64063l0.11719-2.2285c0.26625-0.0172 0.59961-0.01609 1.0059 0.0039 0.4525 0.0238 0.82117 0.06339 1.1074 0.11719 0.13 0.02375 0.21737 0.07268 0.26367 0.14648 0.062 0.09875 0.08164 0.35172 0.05664 0.76172l0.50977 0.02539 0.03711-1.1641 0.08398-1.168-0.50976-0.027344c-0.0263 0.3175-0.06479 0.54328-0.12109 0.67578-0.0237 0.0525-0.05766 0.088722-0.09766 0.10742-0.04 0.0195-0.17203 0.024578-0.39453 0.017578-0.5925-0.0175-0.93625-0.030156-1.0312-0.035156-0.305-0.015-0.59695-0.04625-0.87695-0.09375l0.05664-1.0723c0.0325-0.6075 0.08958-1.1088 0.17578-1.5 0.38375-0.0125 0.75875-0.00903 1.125 0.00977 0.39 0.0213 0.78641 0.062294 1.1914 0.12109 0.275 0.03875 0.43774 0.075675 0.49024 0.10938 0.0312 0.0225 0.05531 0.058622 0.07031 0.10742 0.0233 0.095 0.02812 0.34711 0.01563 0.75586l0.48438 0.025391c0.0637-0.455 0.10042-0.70987 0.10742-0.76367l0.16211-0.76172-0.03906-0.072266c-0.0925-0.0512-0.16182-0.079078-0.20312-0.080078-0.4575-0.0388-0.76141-0.059359-0.91016-0.068359l-1.2695-0.041016c-0.7-0.025-1.3343-0.053984-1.9043-0.083984-0.2625-0.0138-0.53867-0.025156-0.82617-0.035156l-1.4512-0.035156zm-3.623 0.14648c-0.45625-0.0137-0.96539 0.013331-1.5254 0.082031-1.635 0.2-2.856 0.70633-3.666 1.5176-0.81 0.81125-1.148 1.7707-1.0117 2.877 0.08 0.64625 0.30648 1.2252 0.67774 1.7402 0.24375 0.34 0.57102 0.64586 0.97852 0.91211 0.40875 0.2675 0.89031 0.46219 1.4453 0.58594 0.70625 0.1525 1.5016 0.17391 2.3828 0.06641 0.61875-0.07625 1.1307-0.18281 1.5332-0.32031 0.40375-0.13625 0.85055-0.34953 1.3418-0.64453l0.2207-0.57031-0.16992-0.10352c-0.42 0.25125-0.81539 0.43891-1.1816 0.56641-0.36875 0.12625-0.76375 0.21628-1.1875 0.26758-0.6425 0.0787-1.2013 0.06297-1.6738-0.05078-0.3475-0.085-0.70125-0.24742-1.0625-0.48242-0.3625-0.23625-0.66727-0.55172-0.91602-0.94922-0.24875-0.39875-0.40852-0.87906-0.47852-1.4453-0.115-0.935 0.08812-1.6999 0.60938-2.2949 0.52125-0.59375 1.2691-0.95031 2.2441-1.0703 0.53875-0.0662 0.99031-0.059922 1.3516 0.017578 0.36125 0.0775 0.69516 0.22094 1.0039 0.42969 0.05375 0.22625 0.10841 0.53086 0.16211 0.91211l0.50781-0.0625c-0.026-0.33625-0.03269-0.70352-0.02148-1.1035 0.0062-0.25125 0.03117-0.46352 0.07617-0.63477l-0.03906-0.0625c-0.613-0.1046-1.147-0.1643-1.602-0.1793zm13.26 0.47656-0.12695 0.44336c0.425 0.14875 0.67867 0.24482 0.76367 0.29102 0.0837 0.04625 0.13917 0.092372 0.16797 0.13867 0.0287 0.0475 0.04202 0.11141 0.04102 0.19141-0.0012 0.08125-0.03602 0.24734-0.10352 0.49609l-0.40039 1.4902-0.46875 1.6367c-0.13 0.4525-0.24505 0.81625-0.34375 1.0938-0.17625 0.48625-0.29568 0.78961-0.35938 0.91211-0.0475 0.08875-0.09011 0.14472-0.12891 0.16602-0.03875 0.0225-0.08401 0.03416-0.13281 0.03516-0.07375-0.0038-0.35148-0.06148-0.83398-0.17774l-0.127 0.446c0.6875 0.1625 1.2295 0.30031 1.627 0.41406 0.10625 0.03125 0.54024 0.16344 1.3027 0.39844l0.12109-0.41992c-0.0575-0.0125-0.09609-0.0233-0.12109-0.0293-0.12125-0.035-0.30875-0.10453-0.5625-0.20703-0.0938-0.03745-0.1563-0.07513-0.1875-0.11133-0.03-0.0362-0.04873-0.07609-0.05273-0.12109-0.0075-0.095 0.03531-0.34219 0.13281-0.74219 0.1325-0.58125 0.27648-1.1366 0.42773-1.6641l0.72852-2.543c1.6862 3.1525 3.0038 5.5317 3.9551 7.1367 0.3325 0.15 0.65711 0.30398 0.97461 0.45898l0.0918-0.02539c0.0925-0.5 0.46594-1.8852 1.1172-4.1602 0.08375-0.29 0.21664-0.74016 0.40039-1.3477 0.1825-0.60875 0.32875-0.99078 0.4375-1.1445 0.0213-0.0312 0.05039-0.048641 0.08789-0.056641 0.10625-0.025 0.40664 0.02625 0.90039 0.15625l0.126-0.4448c-0.615-0.1425-1.117-0.26891-1.502-0.37891-0.405-0.11625-0.84953-0.26234-1.332-0.43359l-0.12695 0.44336c0.535 0.16125 0.83906 0.28555 0.91406 0.37305 0.0457 0.05375 0.05906 0.14734 0.03906 0.27734-0.04375 0.3375-0.32976 1.42-0.85352 3.25l-0.36133 1.1719c-0.422-0.649-0.936-1.528-1.54-2.635-0.84-1.5377-1.543-2.883-2.111-4.0393l-0.568-0.1367-0.889-0.2305c-0.24375-0.07-0.61875-0.1943-1.125-0.37305zm-25.824 2.1015c-0.36125 0.1075-0.73625 0.23898-1.125 0.39648l-2.7715 1.1719-2.0762 0.78711 0.17383 0.42773c0.39125-0.135 0.63406-0.21177 0.72656-0.23047 0.0925-0.017 0.155-0.02267 0.1875-0.01367 0.0337 0.0062 0.06354 0.02544 0.08984 0.05664 0.07875 0.09 0.17125 0.26102 0.28125 0.50977 0.36625 0.865 0.55932 1.3202 0.57812 1.3652l0.82031 2.0312c0.07 0.17375 0.18219 0.46133 0.33594 0.86133 0.1525 0.40125 0.23901 0.64136 0.25781 0.72266 0.0325 0.13875 0.03758 0.23526 0.01758 0.28906-0.0138 0.0362-0.03586 0.06604-0.06836 0.08984-0.0625 0.0525-0.3225 0.17469-0.78125 0.36719l0.17383 0.42969c0.70375-0.32 1.2195-0.54594 1.5508-0.67969l2.3066-0.87891-0.1543-0.38476c-0.54625 0.1825-0.86 0.2772-0.9375 0.2832-0.0775 0.0075-0.13849-0.0023-0.17969-0.02734-0.05875-0.0375-0.16375-0.20867-0.3125-0.51367-0.15-0.305-0.38227-0.84695-0.69727-1.627l-0.2207-0.54688c0.21625-0.0913 0.36758-0.15521 0.45508-0.19141 0.61-0.24625 1.0652-0.40341 1.3652-0.47461 0.11875-0.025 0.19914-0.02143 0.24414 0.0098 0.0875 0.06375 0.21898 0.29883 0.39648 0.70508l0.51953-0.20898c-0.35125-0.86875-0.63898-1.5845-0.86523-2.1445l-0.51953 0.21094c0.1125 0.3 0.16702 0.49625 0.16602 0.59375 0.0024 0.07255-0.01805 0.12646-0.06055 0.16016-0.11375 0.0925-0.41906 0.2375-0.91406 0.4375-0.1725 0.06875-0.50641 0.19148-1.0039 0.36524l-0.27343-0.67777c-0.34125-0.8425-0.55367-1.4341-0.63867-1.7754 0.10375-0.05125 0.30055-0.14024 0.5918-0.27148 0.29125-0.13125 0.47016-0.21003 0.53516-0.23633 0.33625-0.135 0.63734-0.23458 0.90234-0.30078 0.265-0.065 0.43844-0.093984 0.52344-0.083984 0.0263 0.0013 0.05031 0.011044 0.07031 0.027344 0.02625 0.0225 0.07107 0.10133 0.13476 0.23633 0.12625 0.25625 0.20318 0.42185 0.23438 0.49805l0.47461-0.19141c-0.084-0.216-0.169-0.4741-0.254-0.7741-0.087-0.2988-0.148-0.5482-0.18-0.752l-0.08008-0.046875zm37.428 1.5117-0.07422 0.02148c-0.06 0.175-0.12109 0.33352-0.18359 0.47852-0.03875 0.08375-0.22398 0.45438-0.55274 1.1094l0.49609 0.26172c0.15375-0.2725 0.31422-0.50758 0.48047-0.70508 0.0675-0.0825 0.1181-0.12681 0.1543-0.13281 0.02625-0.0063 0.10156 0.01727 0.22656 0.07227 0.31 0.13625 0.66219 0.30883 1.0547 0.51758l0.7793 0.41602c-0.035 0.0975-0.25391 0.52992-0.66016 1.2949l-1.4922 2.8066c-0.345 0.6825-0.57375 1.0789-0.6875 1.1914-0.0775 0.0712-0.16914 0.10275-0.27539 0.09375-0.105-0.0075-0.39047-0.12742-0.85547-0.35742l-0.2168 0.4082c0.70375 0.33875 1.3216 0.64648 1.8516 0.92774 0.495 0.26375 1.0952 0.60117 1.8027 1.0137l0.2168-0.4082c-0.44-0.25-0.69401-0.41816-0.75781-0.50196-0.0655-0.085-0.08977-0.17453-0.07227-0.26953 0.03-0.16 0.22524-0.57695 0.58398-1.252l1.4922-2.8066c0.3975-0.74625 0.63052-1.1729 0.69922-1.2754l0.78125 0.41602c0.41875 0.2225 0.77164 0.42633 1.0566 0.61133 0.0912 0.05625 0.1444 0.0975 0.1582 0.125 0.0138 0.03625-0.000363 0.11789-0.03906 0.24414-0.08 0.2475-0.18359 0.49555-0.30859 0.74805l0.49609 0.26367c0.365-0.65875 0.55672-0.99964 0.57422-1.0234 0.085-0.14125 0.19578-0.29891 0.33203-0.47266l-0.0293-0.07813c-0.1825-0.07875-0.3607-0.15914-0.5332-0.24414-0.32-0.15875-0.94711-0.48813-1.8809-0.98438l-2.2441-1.1934c-0.9075-0.48375-1.5183-0.81273-1.832-0.99023-0.19375-0.11-0.37477-0.21867-0.54102-0.32617zm-46.559 3.258c-0.43875-0.01-0.88625 0.06164-1.3438 0.21289-0.61125 0.20875-1.2305 0.53125-1.8555 0.96875-0.6275 0.43875-1.1531 0.92297-1.5781 1.4492-0.33 0.4125-0.57508 0.87859-0.73633 1.4023-0.16 0.5225-0.19828 1.0494-0.11328 1.5781 0.08625 0.5275 0.31625 1.0547 0.6875 1.5859 0.48125 0.6875 1.0397 1.1506 1.6797 1.3906 0.63875 0.24 1.3171 0.28406 2.0371 0.13281 0.71875-0.1525 1.4645-0.49976 2.2383-1.041 0.71375-0.5 1.2799-1.0412 1.7012-1.625 0.3025-0.42875 0.51969-0.88836 0.64844-1.3809 0.1287-0.4925 0.15292-0.96984 0.07422-1.4336-0.10375-0.6225-0.34602-1.207-0.72852-1.752-0.225-0.3225-0.46867-0.58703-0.73242-0.80078-0.26375-0.2125-0.54992-0.37734-0.85742-0.49609-0.3075-0.11745-0.68109-0.18141-1.1211-0.19141zm-1.2578 1.1836c0.17812 0.0095 0.35711 0.03854 0.53711 0.08789 0.36 0.1 0.71078 0.28047 1.0508 0.54297 0.33875 0.2625 0.64984 0.59695 0.93359 1.002 0.41375 0.59125 0.66812 1.1609 0.76562 1.7109 0.09625 0.54875 0.03516 1.0289-0.18359 1.4414-0.21875 0.41125-0.54266 0.76711-0.97266 1.0684-0.465 0.32625-0.93234 0.51792-1.4023 0.57422-0.47 0.0575-0.96859-0.05695-1.4961-0.3457-0.5275-0.2875-1.0275-0.76836-1.5-1.4434-0.3275-0.46875-0.54961-0.95242-0.66211-1.4512-0.1125-0.49875-0.06281-0.97156 0.14844-1.4141 0.21125-0.44375 0.56641-0.84141 1.0664-1.1914 0.4375-0.30625 0.83234-0.48948 1.1836-0.55078 0.17625-0.03 0.35312-0.04079 0.53125-0.03125zm56.729 0.54492-0.29102 0.35938c0.375 0.34 0.58672 0.55734 0.63672 0.65234 0.019 0.0425 0.02263 0.08445 0.01563 0.12695-0.025 0.095-0.17281 0.31602-0.44531 0.66602l-0.6875 0.88672-1.2383 1.5312-0.99609 1.1895c-0.185 0.21-0.33461 0.36042-0.44336 0.44922-0.0575 0.0501-0.10227 0.07803-0.13477 0.08203-0.03375 0.005-0.07414-0.0035-0.11914-0.02734-0.08375-0.03625-0.31461-0.19758-0.69336-0.48633l-0.29102 0.35938c0.445 0.31875 0.91531 0.67828 1.4141 1.082 0.55875 0.4525 1.107 0.91828 1.6445 1.3945l0.28906-0.35938c-0.3075-0.25875-0.48872-0.42068-0.54492-0.48438-0.05625-0.06375-0.09242-0.1157-0.10742-0.1582-0.015-0.04125-0.01867-0.07883-0.01367-0.11133 0.0125-0.06875 0.07445-0.18391 0.18945-0.34766 0.06-0.07875 0.31914-0.40742 0.77539-0.98242 0.3725-0.46875 0.72695-0.90992 1.0645-1.3262 0.2125-0.2625 0.64508-0.77742 1.2988-1.5449 0.29-0.33875 0.47836-0.55528 0.56836-0.64648 0.1725 0.10375 0.33734 0.22016 0.49609 0.34766 0.35625 0.28875 0.58641 0.51156 0.69141 0.66406 0.16005 0.24 0.24491 0.50086 0.25391 0.78711 0.0088 0.285-0.08992 0.5568-0.29492 0.81055-0.20375 0.25125-0.45727 0.42172-0.75977 0.51172-0.3025 0.0912-0.58461 0.09477-0.84961 0.0098-0.265-0.08375-0.59031-0.2918-0.97656-0.62305l-0.16602 0.09375c0.0501 0.14125 0.07798 0.31398 0.08398 0.52148 0.0137 0.41 0.0029 0.94633-0.03711 1.6113l-0.13477 2.3145c-0.0163 0.14625-0.04172 0.25628-0.07422 0.33008 0.2775 0.18375 0.54734 0.38055 0.80859 0.5918 0.225 0.1825 0.57734 0.48867 1.0586 0.91992l0.29102-0.35938c-0.15125-0.1275-0.247-0.2207-0.2832-0.2832-0.0375-0.06125-0.06193-0.13742-0.07813-0.23242-0.015-0.095-0.03489-0.37977-0.05859-0.85352 0-0.0325 0.000859-0.25773 0.0059-0.67773l0.01758-1.5781c0.002-0.04005 0.0028-0.0825 0.0078-0.125 0.004-0.04125 0.0078-0.16906 0.0078-0.38281s0.0085-0.41547 0.02734-0.60547c0.64375 0.25495 1.1973 0.34594 1.666 0.27344 0.4675-0.07375 0.83617-0.27828 1.1074-0.61328 0.22745-0.28125 0.3325-0.59234 0.3125-0.93359s-0.13219-0.64531-0.33594-0.91406c-0.20375-0.2675-0.56102-0.60773-1.0723-1.0215-0.26376-0.21379-0.60736-0.47433-1.0274-0.77933-0.25875-0.18125-0.55719-0.41-0.89844-0.6875-0.40125-0.32375-0.70672-0.57867-0.91797-0.76367-0.4325-0.37875-0.68672-0.5969-0.76172-0.6582zm-29.732 0.91602c-23.018 0-41.676 18.66-41.676 41.678 0 2.5262 0.2243 4.9972 0.6543 7.3984h0.0332c1.0287 5.6234 2.886 11.675 6.1758 15.947 3.2898 4.2728 6.0785 7.1363 9.248 9.5586 5.2348 3.9113 15.927 8.7715 25.564 8.7715 9.6388 0 20.657-4.8349 25.566-8.7715 4.9095-3.9366 6.852-6.461 8.9512-9.5586 3.1916-4.7486 5.5245-10.985 6.4707-15.947h0.0332c0.43125-2.4012 0.65625-4.8722 0.65625-7.3984 0-23.018-18.66-41.678-41.678-41.678zm-37.586 5.5137-0.61719 0.78906c0.04375 0.11 0.12961 0.36195 0.25586 0.75195 0.37375 1.1338 0.59482 1.8141 0.66602 2.0391l0.36523 1.293c-0.20625-0.03375-0.77453-0.10273-1.707-0.20898-0.58-0.07-1.1155-0.10366-1.6055-0.09766-0.33125 0.0025-0.56859 0.02294-0.71484 0.05664-0.14625 0.035-0.34516 0.11469-0.59766 0.24219-0.10625 0.22125-0.21211 0.43492-0.31836 0.63867l-0.64648 1.1875 0.30664 0.24023c0.195-0.2475 0.31589-0.38602 0.36719-0.41602 0.085-0.0463 0.26883-0.09313 0.54883-0.14063 0.42375-0.0675 0.93867-0.09789 1.5449-0.08789 0.745 0.01125 1.482 0.05023 2.207 0.11523 0.3 0.03245 0.48122 0.07185 0.54492 0.12305l0.79883 0.625c0.22375 0.175 0.49203 0.39375 0.80078 0.65625 0.13245 0.11875 0.20194 0.20055 0.21094 0.24805 0.01 0.04625-0.0048 0.10664-0.04102 0.18164-0.035 0.075-0.19531 0.30375-0.47656 0.6875l0.36328 0.28516c0.37125-0.52625 0.75047-1.0355 1.1367-1.5293 0.395-0.5075 0.85094-1.0651 1.3672-1.6738l-0.36523-0.2832c-0.28875 0.3575-0.46711 0.56414-0.53711 0.61914s-0.13511 0.08589-0.19141 0.08789c-0.05625 0.0038-0.17477-0.04805-0.35352-0.1543-0.17875-0.105-0.45016-0.29039-0.81641-0.55664l-0.71094-0.55469c-0.145-0.11375-0.24383-0.19997-0.29883-0.26367-0.07125-0.0925-0.14063-0.22508-0.20313-0.39258-0.09-0.2475-0.25976-0.84617-0.50976-1.7949-0.25-0.95-0.44594-1.8045-0.58594-2.5645l-0.1875-0.14844zm78.244 3.8828-1.2969 0.28516-3.7207 0.75195c-0.705 0.14375-1.1767 0.2382-1.418 0.2832-0.5175 0.0912-0.81995 0.13953-0.90625 0.14453-0.0875 0.0062-0.15909-0.0013-0.21289-0.01758-0.055-0.0175-0.10766-0.04539-0.16016-0.08789-0.05125-0.0425-0.18695-0.19172-0.4082-0.44922l-0.36914 0.27734 0.9082 1.125 0.83398 1.1875 0.36914-0.27734c-0.29-0.40625-0.44484-0.66539-0.46484-0.77539-0.0124-0.07375 0.01258-0.1375 0.08008-0.1875 0.095-0.0725 0.39891-0.16727 0.91016-0.29102l0.66406-0.16211 1.9727 2.6211-0.59961 1.1152c-0.1025 0.19625-0.18781 0.32055-0.25781 0.37305-0.05625 0.0425-0.11448 0.04552-0.17578 0.01172-0.0625-0.03375-0.25352-0.24758-0.57227-0.64258l-0.37109 0.2793 1.3574 1.7188 1 1.4082 0.36914-0.27734c-0.065-0.1025-0.11203-0.18133-0.14453-0.23633-0.10995-0.1625-0.17391-0.27011-0.19141-0.31641-0.0173-0.04755-0.02734-0.09313-0.02734-0.14062 0-0.04625 0.01406-0.10719 0.03906-0.17969l0.24024-0.49219 0.34766-0.75 2.748-5.5801-0.54297-0.71875zm-1.5156 1.0527-1.3906 2.7363c-0.24375-0.2975-0.51219-0.6418-0.80469-1.0293-0.3025-0.4025-0.56867-0.76625-0.79492-1.0938l2.9902-0.61328zm-82.639 2.8125-0.07813 0.02734c-0.085 0.18-0.17237 0.35219-0.26367 0.52344-0.17 0.31375-0.51938 0.9275-1.0469 1.8438l-1.2734 2.2031c-0.51375 0.89-0.86398 1.4906-1.0527 1.7969-0.1175 0.19-0.23125 0.3668-0.34375 0.5293l0.01758 0.07617c0.1725 0.065 0.33016 0.13107 0.47266 0.19727 0.0825 0.04375 0.44609 0.23859 1.0898 0.58984l0.2793-0.48438c-0.2675-0.1625-0.49695-0.33016-0.68945-0.50391-0.08005-0.06995-0.12195-0.12396-0.12695-0.16016-0.005-0.02625 0.02128-0.10086 0.08008-0.22461 0.14625-0.30375 0.33024-0.65016 0.55274-1.0352l0.44141-0.76562c0.0975 0.0375 0.52219 0.27328 1.2734 0.70703l2.752 1.5879c0.67 0.36875 1.0592 0.61297 1.168 0.73047 0.0675 0.08 0.09519 0.17109 0.08398 0.27734-0.0125 0.105-0.14242 0.38555-0.38867 0.8418l0.40039 0.23047c0.3625-0.6925 0.69344-1.2957 0.99219-1.8145 0.28125-0.48625 0.64062-1.0751 1.0781-1.7676l-0.398-0.233c-0.265 0.43125-0.4418 0.67893-0.5293 0.74023-0.08625 0.0625-0.17648 0.0825-0.27148 0.0625-0.15875-0.03625-0.56922-0.2457-1.2305-0.62695l-2.7539-1.5898c-0.7325-0.4225-1.1488-0.66849-1.25-0.74219l0.44141-0.76758c0.2375-0.41125 0.45469-0.75641 0.64844-1.0352 0.06-0.0888 0.10401-0.13984 0.13281-0.15234 0.03625-0.0125 0.11524 0.0044 0.24024 0.04687 0.245 0.08875 0.49078 0.20024 0.73828 0.33398l0.28125-0.48633c-0.6475-0.38875-0.98141-0.59068-1.0039-0.60938-0.13875-0.08875-0.29219-0.20391-0.46094-0.34766zm88.357 2.1367-0.41211 0.20898c0.2325 0.49625 0.3477 0.80086 0.3457 0.91211 0.001 0.05-0.013 0.09325-0.043 0.12695-0.0687 0.0775-0.39758 0.27148-0.98633 0.58398-0.23125 0.12375-0.84695 0.44117-1.8457 0.95117-0.68 0.34625-1.2652 0.63891-1.7539 0.87891-0.48875 0.24-0.77839 0.37128-0.86719 0.39258-0.0213 0.006-0.04261 0.0041-0.06641-0.0039-0.03625-0.01-0.09383-0.04547-0.17383-0.10547-0.17875-0.135-0.31214-0.24107-0.39844-0.32227l-0.24805 0.125v0.002c0.4075 0.7275 0.70242 1.271 0.88867 1.6348 0.1225 0.24125 0.33406 0.67031 0.63281 1.2891 0.3925 0.8125 0.60692 1.254 0.64062 1.3203 0.2425 0.475 0.43 0.81961 0.5625 1.0371 0.06625 0.10125 0.14081 0.19852 0.22461 0.29102 0.06125-0.02625 0.25141-0.09945 0.5664-0.2207l1.0274-0.33984c0.015-0.0075 0.0723-0.02805 0.16602-0.06055l-0.25391-0.5c-0.34625 0.08875-0.65805 0.15823-0.93555 0.20703-0.1125 0.016-0.18516 0.01479-0.22266-0.0039-0.0362-0.0175-0.10422-0.09633-0.19922-0.23633-0.26875-0.38375-0.54367-0.8532-0.82617-1.4082-0.0925-0.1825-0.25492-0.53398-0.48242-1.0527 0.0925-0.0525 0.36023-0.19508 0.80273-0.42383s0.88718-0.45836 1.3359-0.69336c0.85376-0.43875 1.3077-0.67432 1.3652-0.70312 0.53-0.27 0.97102-0.48945 1.3223-0.6582 0.3525-0.1675 0.55492-0.25191 0.60742-0.25391 0.0525-0.0025 0.0994 0.01242 0.14063 0.04492 0.0888 0.075 0.25008 0.3243 0.48633 0.74805l0.41211-0.21094c-0.34001-0.59375-0.6811-1.2321-1.0274-1.9121-0.31-0.60875-0.57265-1.1558-0.78515-1.6445zm-93.08 6.7598c-0.2025 0.6525-0.43602 1.3405-0.69727 2.0605-0.23375 0.6425-0.45672 1.2064-0.66797 1.6914l0.43555 0.1582c0.1675-0.42125 0.27055-0.66211 0.31055-0.72461 0.04005-0.06245 0.076875-0.10284 0.10938-0.11914 0.03375-0.018 0.073594-0.02353 0.12109-0.01953 0.11625 0.01125 0.39102 0.08375 0.82227 0.21875 0.19625 0.05375 0.62602 0.20406 1.291 0.44531l2.0957 0.76172c0.34125 0.125 0.71047 0.26648 1.1055 0.42773 0.26625 0.12 0.41692 0.1932 0.45312 0.2207 0.0263 0.0188 0.04609 0.04724 0.05859 0.08594 0.013 0.04 0.0097 0.10456-0.0078 0.19336-0.01375 0.06875-0.08851 0.31524-0.22852 0.74024l0.43359 0.1582c0.15-0.50625 0.34102-1.0779 0.57227-1.7129 0.265-0.7275 0.52922-1.4078 0.79297-2.0391l-0.43359-0.1582c-0.145 0.38125-0.24136 0.60859-0.28516 0.68359-0.045 0.07505-0.0863 0.12354-0.125 0.15234-0.03875 0.0288-0.08422 0.04106-0.13672 0.03906-0.1175 0.0025-0.34766-0.06055-0.69141-0.18555l-0.92579-0.31055-2.0215-0.73438c-0.06375-0.02375-0.50352-0.1893-1.3223-0.49805-0.24-0.08875-0.40328-0.15325-0.48828-0.18945-0.15625-0.07-0.25653-0.12708-0.30273-0.17578-0.0288-0.0238-0.05055-0.05766-0.06055-0.09766-0.0097-0.04-0.0066-0.10044 0.0059-0.18164 0.0125-0.08125 0.08516-0.32492 0.22266-0.73242l-0.43555-0.1582zm98.17 4.8223-0.45117 0.10352c0.0725 0.4075 0.10928 0.65825 0.11328 0.75195 0.004 0.09505-0.001 0.15825-0.0137 0.18945-0.0126 0.0325-0.0373 0.05758-0.0723 0.08008-0.10125 0.0625-0.28242 0.12727-0.54492 0.19727-0.91125 0.22625-1.392 0.34622-1.4394 0.35742l-2.1367 0.49414c-0.1825 0.0425-0.48235 0.10651-0.90235 0.19531-0.42 0.08875-0.6727 0.13462-0.7539 0.14062-0.1425 0.0099-0.23907 0.0021-0.28907-0.02539-0.0337-0.02-0.0593-0.04583-0.0781-0.08203-0.0413-0.07-0.12273-0.34758-0.24024-0.83008l-0.45117 0.10352c0.205 0.745 0.34839 1.2899 0.42969 1.6387l0.50781 2.418 0.40235-0.09375c-0.095-0.56875-0.13977-0.8932-0.13477-0.9707 0.006-0.0775 0.0254-0.13438 0.0566-0.17188 0.0463-0.0525 0.23164-0.12852 0.55664-0.22852s0.8968-0.2468 1.7168-0.43555l0.57422-0.13086c0.0563 0.22625 0.0939 0.38602 0.11523 0.47852 0.14875 0.64125 0.23532 1.1156 0.25782 1.4219 0.006 0.12125-0.0101 0.20078-0.0488 0.23828-0.0763 0.07625-0.32782 0.17266-0.75782 0.28516l0.12696 0.54492c0.91273-0.21101 1.6637-0.38535 2.252-0.52148l-0.125-0.54492c-0.31375 0.0642-0.51903 0.08857-0.61523 0.07227-0.0712-0.0088-0.12094-0.03714-0.14844-0.08594-0.0725-0.12625-0.16781-0.45141-0.28906-0.97266-0.0413-0.18-0.10943-0.53008-0.20313-1.0488l0.71094-0.16211c0.885-0.20375 1.5023-0.32232 1.8535-0.35352 0.0337 0.11 0.0939 0.32016 0.17774 0.62891 0.0838 0.3075 0.13214 0.49695 0.14844 0.56445 0.0812 0.35375 0.13375 0.66625 0.15625 0.9375 0.0225 0.2725 0.0225 0.4481 0 0.5293-0.005 0.0263-0.0158 0.04695-0.0371 0.06445-0.0263 0.0238-0.11016 0.05516-0.25391 0.09766-0.2725 0.08375-0.44854 0.1356-0.52734 0.1543l0.11523 0.49805c0.22625-0.04875 0.49399-0.09141 0.80274-0.12891 0.30875-0.0387 0.56648-0.05955 0.77148-0.06055l0.0606-0.07031c-0.0513-0.37375-0.12505-0.76578-0.21875-1.1758l-0.72266-2.918-0.45117-2.1738zm-99.969 1.681-0.1348 0.024c-0.18875 0.275-0.35922 0.61031-0.51172 1.0078-0.15375 0.3975-0.27739 0.81641-0.37109 1.2539-0.0887 0.42125-0.13653 0.83836-0.14453 1.2559-0.0075 0.4175 0.045703 0.80391 0.1582 1.1602 0.1125 0.35625 0.31141 0.66594 0.59766 0.92969s0.62227 0.43833 1.0098 0.51953c0.2775 0.0588 0.5468 0.06216 0.81055 0.0059 0.26375-0.05625 0.5025-0.17547 0.71875-0.35547 0.215-0.18125 0.40531-0.43914 0.57031-0.77539 0.10875-0.2225 0.30961-0.69211 0.59961-1.4121 0.21-0.4975 0.38523-0.84109 0.52148-1.0273 0.1375-0.18625 0.29445-0.3113 0.4707-0.375s0.37305-0.07354 0.5918-0.02734c0.25875 0.05625 0.47539 0.17227 0.65039 0.35352s0.28789 0.43758 0.33789 0.76758c0.0512 0.33125 0.03562 0.69203-0.04687 1.082-0.095 0.4475-0.26406 0.84375-0.50781 1.1875-0.2425 0.3425-0.48758 0.56969-0.73633 0.67969-0.38125-0.025-0.69586-0.06891-0.94336-0.12891l-0.11524 0.54883c0.80625 0.175 1.393 0.36477 1.7617 0.57227 0.295-0.43375 0.5257-0.83805 0.68945-1.2168 0.1625-0.38 0.29875-0.82258 0.40625-1.3301 0.1475-0.6925 0.19086-1.304 0.13086-1.834-0.03875-0.33125-0.1318-0.66445-0.2793-1.002-0.14626-0.3363-0.32938-0.61528-0.54688-0.83403-0.29-0.29-0.65516-0.48247-1.0977-0.57617-0.2525-0.0538-0.49023-0.06234-0.70898-0.02734-0.22 0.035-0.40766 0.09891-0.56641 0.19141s-0.31203 0.23297-0.45703 0.41797c-0.14625 0.18375-0.2918 0.43445-0.43555 0.75195-0.0525 0.1225-0.15289 0.39024-0.30664 0.80274-0.1525 0.4125-0.27469 0.73359-0.36719 0.96484-0.135 0.2975-0.26141 0.51961-0.37891 0.66211s-0.25602 0.24253-0.41602 0.29883-0.35523 0.06258-0.58398 0.01758c-0.3175-0.0675-0.56312-0.27976-0.73438-0.63476-0.1726-0.355-0.20078-0.80969-0.082031-1.3672 0.0825-0.38875 0.21664-0.72688 0.40039-1.0156 0.18375-0.2875 0.36422-0.47922 0.54297-0.57422 0.1725 0.0025 0.46008 0.04164 0.86133 0.11914l0.1174-0.548c-0.35-0.0875-0.62984-0.16969-0.83984-0.24219-0.21-0.07375-0.42227-0.16398-0.63477-0.27148zm101.71 6.5098-0.46289 0.0332c0.0212 0.54875 0.008 0.87336-0.0371 0.97461-0.0187 0.04745-0.0486 0.07961-0.0898 0.09961-0.0925 0.04375-0.47172 0.09484-1.1367 0.15234-0.26125 0.02375-0.95157 0.0755-2.0703 0.1543-0.76 0.0525-1.4133 0.095-1.957 0.125-0.54375 0.0283-0.86117 0.03648-0.95117 0.02148-0.0213-0.0025-0.0418-0.01234-0.0606-0.02734-0.0301-0.02375-0.0704-0.07852-0.11914-0.16602-0.11375-0.1925-0.19208-0.34438-0.23828-0.45312l-0.27929 0.01953-0.002 0.002c0.0912 0.8275 0.15089 1.4441 0.17969 1.8516 0.0188 0.27 0.0444 0.74734 0.0781 1.4336 0.045 0.90125 0.0712 1.3898 0.0762 1.4648 0.0375 0.53125 0.0746 0.92328 0.11328 1.1758 0.0201 0.11875 0.0506 0.23797 0.0918 0.35547 0.0675 0 0.26993 0.0051 0.60743 0.01758l1.0801 0.08984c0.0175-0.002 0.0751-0.000141 0.17383 0.0059l-0.0391-0.55859c-0.3525-0.05375-0.66445-0.11013-0.93945-0.17383-0.10875-0.0287-0.17758-0.05864-0.20508-0.08984-0.0275-0.03125-0.0561-0.13062-0.0898-0.29688-0.0975-0.4575-0.16714-0.99789-0.21094-1.6191-0.0137-0.205-0.0252-0.58875-0.0312-1.1562 0.105-0.0125 0.40609-0.03867 0.90234-0.07617s0.99696-0.07589 1.502-0.11719c0.9575-0.07125 1.4688-0.10828 1.5313-0.11328 0.59375-0.0413 1.0866-0.07169 1.4766-0.08789 0.38875-0.0178 0.60755-0.01555 0.65625 0.002 0.0488 0.0175 0.0863 0.0495 0.11133 0.0957 0.0525 0.10375 0.10505 0.39641 0.15625 0.87891l0.46093-0.0332c-0.08-0.68-0.14552-1.4009-0.19922-2.1621-0.0476-0.68125-0.0731-1.2885-0.0781-1.8223zm-96.807 1.709c-0.0038 0.1975-0.01797 0.33224-0.04297 0.39844-0.02375 0.0675-0.06911 0.13768-0.13281 0.20898-0.06375 0.07125-0.27125 0.26383-0.625 0.58008-0.025 0.02125-0.20125 0.16258-0.53125 0.42383l-1.2363 0.97852c-0.03255 0.025-0.06536 0.04977-0.10156 0.07227-0.035 0.02375-0.13648 0.10133-0.30274 0.23633-0.16625 0.13375-0.32828 0.25508-0.48828 0.36133-0.205-0.66125-0.48664-1.1512-0.83789-1.4688-0.35125-0.3175-0.74188-0.47461-1.1719-0.47461-0.3625 0-0.66938 0.11375-0.92188 0.34375-0.2525 0.23125-0.41805 0.50969-0.49805 0.83594-0.07995 0.3275-0.12109 0.82102-0.12109 1.4785 0 0.34 0.013516 0.76906 0.041016 1.2891 0.0212 0.31375 0.033203 0.69086 0.033203 1.1309 0 0.515-0.00638 0.91336-0.017578 1.1934-0.0213 0.575-0.03125 0.90966-0.03125 1.0059h0.46289c0.02875-0.50625 0.062969-0.80755 0.10547-0.90625 0.0213-0.04 0.051144-0.06984 0.089844-0.08984 0.08875-0.0412 0.35438-0.06522 0.79688-0.07422l1.1211-0.02344h1.9707l1.5508 0.02344c0.28 0.0125 0.49141 0.0337 0.62891 0.0625 0.07505 0.0125 0.12344 0.03089 0.14844 0.05469 0.025 0.02245 0.04273 0.05742 0.05273 0.10742 0.0251 0.08875 0.04479 0.36945 0.05859 0.8457h0.46289c-0.0325-0.54625-0.04883-1.1412-0.04883-1.7812 0-0.72 0.01633-1.4361 0.04883-2.1523h-0.46289c-0.0062 0.4025-0.01755 0.64472-0.03125 0.72852-0.0151 0.0837-0.03414 0.14414-0.05664 0.18164-0.0237 0.0375-0.04932 0.06583-0.07813 0.08203-0.06125 0.0338-0.18992 0.05781-0.38867 0.07031-0.1 0.0038-0.5182 0.0086-1.252 0.01563-0.59875 0.005-1.1655 0.0078-1.6992 0.0078-0.33875 0-1.0127-0.01331-2.0215-0.03711-0.445-0.0124-0.72992-0.02396-0.85742-0.03516-0.0288-0.2-0.041016-0.40172-0.041016-0.60547 0-0.4575 0.024325-0.77437 0.078125-0.95312 0.085-0.275 0.23688-0.50781 0.45312-0.69531 0.21625-0.1863 0.4882-0.2793 0.81445-0.2793 0.3225 0 0.615 0.09008 0.875 0.26758 0.26125 0.17875 0.44367 0.39555 0.54492 0.6543 0.1012 0.25875 0.14391 0.64289 0.12891 1.1504l0.17773 0.07031c0.07875-0.12625 0.19531-0.25562 0.35156-0.39062 0.30875-0.27 0.73539-0.59883 1.2754-0.98633l1.8848-1.3516c0.125-0.08005 0.22719-0.13104 0.30469-0.15234-0.0325-0.33125-0.04883-0.66375-0.04883-1 0-0.28875 0.01633-0.75609 0.04883-1.4023h-0.46289zm92.832 7.2773c-0.58225 0.0011-1.099 0.11922-1.5527 0.35547-0.60625 0.31375-1.0941 0.78828-1.4629 1.4258-0.3675 0.635-0.6096 1.4224-0.7246 2.3574-0.10625 0.865-0.0842 1.6491 0.0684 2.3516 0.115 0.5125 0.31304 0.98125 0.59179 1.4062 0.28 0.42375 0.61813 0.76242 1.0156 1.0137 0.5325 0.34 1.1278 0.55151 1.7891 0.63281 0.39 0.0473 0.75094 0.04403 1.0859-0.0098 0.335-0.05375 0.64961-0.15594 0.94336-0.30469 0.2925-0.15 0.58937-0.38508 0.89062-0.70508s0.54969-0.70062 0.74219-1.1406c0.255-0.59375 0.42778-1.2679 0.52148-2.0254 0.0924-0.76125 0.086-1.4758-0.0215-2.1445-0.085-0.52125-0.26758-1.0163-0.54883-1.4863-0.28125-0.46875-0.64695-0.84867-1.0957-1.1387-0.45-0.28875-0.99617-0.47328-1.6387-0.55078-0.20844-0.02562-0.40944-0.03746-0.60352-0.03711zm0.0898 1.9609c0.18873 0.0064 0.38547 0.02156 0.58985 0.04687 0.56875 0.06875 1.0745 0.22852 1.5195 0.47852 0.44625 0.25125 0.76437 0.60484 0.95312 1.0586 0.1875 0.45375 0.24493 0.98289 0.16993 1.5879-0.065 0.53-0.19282 0.9475-0.38282 1.25-0.19125 0.3025-0.44406 0.55266-0.75781 0.75391-0.315 0.20125-0.68297 0.34167-1.1055 0.41797-0.4225 0.075-0.87789 0.08344-1.3691 0.02344-0.715-0.0875-1.3088-0.27922-1.7812-0.57422-0.47375-0.29625-0.79047-0.66281-0.94922-1.1016-0.16125-0.4375-0.20953-0.9182-0.14453-1.4395 0.0687-0.56375 0.23922-1.0402 0.51172-1.4277 0.27125-0.3875 0.69227-0.67891 1.2598-0.87891 0.42468-0.14902 0.92013-0.21464 1.4863-0.19531zm-92.425 0.615c-0.44625 0.0787-1.0223 0.13286-1.7285 0.16406l0.08789 0.50391c0.495-0.0037 0.83648 0.01805 1.0215 0.06055 0.05375 0.0162 0.09133 0.0362 0.11133 0.0625 0.06125 0.0775 0.13722 0.30188 0.22852 0.67188 0.09125 0.37 0.17521 0.77555 0.25391 1.2168 0.08 0.45375 0.13396 0.8493 0.16016 1.1855-0.17375 0.04745-0.38266 0.09097-0.62891 0.13477l-2.1953 0.38867c-0.0775-0.255-0.15266-0.58242-0.22266-0.98242-0.07875-0.445-0.12422-0.81492-0.13672-1.1074-0.0051-0.13125 0.02268-0.22581 0.08398-0.28711 0.0825-0.0825 0.32547-0.15906 0.73047-0.22656l-0.08984-0.50195-1.1445 0.22656-1.1563 0.17774 0.087891 0.50391c0.315-0.0475 0.545-0.05625 0.6875-0.03125 0.05625 0.0112 0.0975 0.03336 0.125 0.06836s0.06297 0.16211 0.10547 0.38086c0.1175 0.58125 0.18292 0.91922 0.19922 1.0117 0.0537 0.3025 0.08927 0.59445 0.10547 0.87695l-1.0586 0.1875c-0.59875 0.105-1.098 0.16006-1.498 0.16406-0.09875-0.37-0.18034-0.73836-0.24414-1.0996-0.06755-0.385-0.11789-0.77875-0.15039-1.1875-0.024-0.27625-0.025206-0.44325-0.00391-0.50195 0.015-0.0363 0.044191-0.0668 0.087891-0.0918 0.0875-0.045 0.33312-0.10489 0.73438-0.18359l-0.085937-0.48047c-0.45875 0.0413-0.71583 0.06236-0.76953 0.06836l-0.77734 0.01172-0.060547 0.05469c-0.0287 0.1025-0.039203 0.1755-0.033203 0.2168 0.0663 0.45375 0.11172 0.75484 0.13672 0.90234l0.24805 1.2461c0.13125 0.6875 0.247 1.3125 0.3457 1.875 0.04625 0.25875 0.097344 0.52875 0.15234 0.8125l0.29102 1.4219 0.4082-0.07227c-0.0633-0.47875-0.083047-0.77898-0.060547-0.89648 0.0113-0.0425 0.0313-0.07731 0.0625-0.10352 0.08-0.06 0.31578-0.13169 0.70703-0.21289 0.5875-0.11995 0.92638-0.18878 1.0176-0.20508l2.3555-0.41602c0.27125-0.0475 0.71211-0.10653 1.3184-0.17773 0.33125-0.0388 0.57141-0.05859 0.72266-0.05859 0.1325 0.13625 0.26891 0.31938 0.41016 0.54688l0.2832-0.05078c-0.25625-1.2712-0.39461-1.9559-0.41211-2.0547-0.065-0.37-0.17453-1.0475-0.33203-2.0312l-0.15234-0.99805c-0.085-0.485-0.16739-0.85844-0.24609-1.1172l-0.08203-0.06641zm87.633 7.4512c-0.15625 0.525-0.34571 1.0889-0.56446 1.6914-0.24625 0.67625-0.5082 1.3453-0.7832 2.0078l0.43555 0.15625c0.14375-0.375 0.23809-0.59883 0.27929-0.67383 0.0426-0.07255 0.0802-0.12484 0.11524-0.15234 0.0337-0.0275 0.0671-0.04383 0.0996-0.04883 0.0688-0.0113 0.19938 0.01086 0.39063 0.06836 0.095 0.03 0.48914 0.16641 1.1816 0.41016 0.56375 0.2 1.0952 0.39242 1.5976 0.57617 0.31875 0.115 0.94797 0.35516 1.8867 0.72266 0.415 0.16375 0.67867 0.27508 0.79492 0.33008-0.0412 0.19625-0.096 0.39078-0.16601 0.58203-0.15625 0.43-0.2911 0.72039-0.40235 0.86914-0.17375 0.23-0.39461 0.39359-0.66211 0.49609-0.2675 0.09995-0.55507 0.09562-0.86132-0.01563-0.30375-0.11-0.54743-0.29453-0.73243-0.55078-0.18375-0.25625-0.2801-0.52328-0.28711-0.80078-0.006-0.2775 0.084-0.6525 0.27149-1.125l-0.14063-0.125c-0.11625 0.09125-0.27109 0.17229-0.46484 0.24609-0.3825 0.14625-0.89586 0.31023-1.5371 0.49024l-2.2324 0.625c-0.14375 0.0327-0.25789 0.04506-0.33789 0.03906-0.0825 0.32125-0.17992 0.64078-0.29492 0.95703-0.09875 0.27125-0.27414 0.70453-0.52539 1.3008l0.43555 0.15625c0.07-0.185 0.12763-0.30242 0.17383-0.35742 0.04625-0.05505 0.11227-0.10734 0.19727-0.15234 0.08375-0.045 0.34586-0.15508 0.78711-0.33008 0.03-0.01125 0.24508-0.0843 0.64258-0.2168l1.498-0.49609c0.0387-0.0124 0.076-0.0232 0.11719-0.0332 0.0413-0.01 0.16469-0.04914 0.36719-0.11914s0.39703-0.12818 0.58203-0.17188c-0.0312 0.69125 0.062 1.2473 0.2832 1.666 0.2225 0.4175 0.5357 0.70016 0.93945 0.84766 0.34125 0.1225 0.66813 0.12024 0.98438-0.0098 0.31625-0.13 0.56836-0.33648 0.75586-0.61524 0.18625-0.28 0.39219-0.72891 0.61719-1.3477 0.11625-0.31875 0.24984-0.72711 0.40234-1.2246 0.0875-0.3025 0.20742-0.66047 0.35742-1.0742 0.17625-0.485 0.31758-0.85523 0.42383-1.1152 0.21625-0.5325 0.3413-0.84435 0.375-0.93555l-0.43555-0.1582v0.002c-0.2 0.465-0.33645 0.73695-0.41015 0.81445-0.0337 0.03-0.0734 0.04869-0.11719 0.05469-0.0975 0.0088-0.35469-0.05938-0.77344-0.20312l-1.0606-0.36133-1.8535-0.67383-1.4492-0.55273c-0.2575-0.1075-0.44836-0.19844-0.56836-0.27344-0.065-0.0375-0.10609-0.07276-0.12109-0.10156-0.0145-0.02995-0.0187-0.07109-0.0117-0.12109 0.006-0.09125 0.0856-0.36195 0.23437-0.81445l-0.43359-0.1582zm-92.727 2.3281-0.43164 0.16602 0.5332 1.252 0.52734 1.5098 0.42969-0.16602c-0.06375-0.1775-0.13409-0.39766-0.21289-0.66016-0.0363-0.115-0.055641-0.1882-0.056641-0.2207 0-0.04005 0.01125-0.07688 0.03125-0.10938 0.02-0.0326 0.056981-0.05758 0.11328-0.08008 0.03995-0.0149 0.0825-0.02816 0.125-0.03516 0.15125-0.0138 0.45953-0.0082 0.92578 0.01563 0.65875 0.03 1.0246 0.04964 1.0996 0.05664l3.2363 0.25391-2.5 2.6602c-0.03 0.03-0.05487 0.05347-0.07617 0.07227-0.02125 0.02-0.15555 0.16274-0.4043 0.42774-0.43125 0.4625-0.69883 0.71315-0.79883 0.75195-0.04995 0.0185-0.09563 0.01739-0.14062-0.0039-0.04375-0.02125-0.09063-0.07234-0.14062-0.15234-0.08625-0.1375-0.19547-0.36781-0.32422-0.69531l-0.43164 0.16406 0.85352 2.0898c0.0775 0.20375 0.28328 0.78117 0.61328 1.7324l0.43164-0.16602c-0.1337-0.37125-0.19645-0.62422-0.18945-0.76172 0.0075-0.0925 0.10844-0.26297 0.30469-0.51172 0.19625-0.2475 0.82859-0.95273 1.9023-2.1152l1.3691-1.4805c0.51-0.54625 1.0504-1.1207 1.6191-1.7207l-0.33984-0.88476c-0.65875-0.02125-1.8034-0.10711-3.4297-0.25586l-1.9062-0.17773-0.98828-0.10156c-0.8125-0.07375-1.2748-0.14972-1.3848-0.22852-0.06375-0.0475-0.18312-0.25625-0.35938-0.625zm89.182 6.332c-0.23625 0.47375-0.52383 1.0041-0.86133 1.5879-0.3875 0.6725-0.76797 1.2948-1.1367 1.8711l0.40039 0.22852c0.21-0.3475 0.34224-0.55414 0.39844-0.61914 0.05625-0.06625 0.10789-0.10966 0.15039-0.13086 0.0438-0.021 0.09008-0.02563 0.14258-0.01563 0.115 0.02 0.33219 0.12094 0.64844 0.30469l0.85742 0.4668 1.8613 1.0742c0.0587 0.0325 0.465 0.2725 1.2188 0.71875 0.22001 0.13 0.36847 0.22148 0.44727 0.27148 0.14125 0.09625 0.23008 0.17222 0.26758 0.22852 0.0249 0.0287 0.039 0.06102 0.041 0.10352 0.004 0.04-0.008 0.10023-0.0352 0.17773-0.0262 0.07875-0.14266 0.30734-0.34766 0.68359l0.40039 0.23047c0.31375-0.6075 0.66313-1.2445 1.0469-1.9082 0.34125-0.5925 0.65672-1.1076 0.94922-1.5488l-0.41-0.232c-0.23875 0.385-0.38285 0.60516-0.43165 0.66016-0.0512 0.0549-0.0939 0.08831-0.1289 0.09961-0.035 0.0103-0.0755 0.0093-0.12305-0.002-0.1125-0.0325-0.37023-0.15188-0.77148-0.35938-0.18375-0.0875-0.58282-0.30961-1.1953-0.66211l-1.9297-1.1133c-0.31375-0.18125-0.65242-0.38773-1.0137-0.61523-0.2425-0.165-0.3782-0.26122-0.4082-0.29492-0.0237-0.0225-0.03892-0.0557-0.04492-0.0957-0.005-0.04125 0.01047-0.10315 0.04297-0.18945 0.025-0.065 0.14227-0.29375 0.35352-0.6875l-0.397-0.232zm-78.682 0.53906-0.39453 0.23828c0.20375 0.3525 0.31841 0.56909 0.34961 0.65039 0.03 0.08125 0.04302 0.14586 0.04102 0.19336-0.0025 0.04745-0.01969 0.09161-0.05469 0.13281-0.0725 0.09125-0.26633 0.23117-0.58008 0.41992l-0.82422 0.52539-1.8438 1.1055c-0.0575 0.035-0.46375 0.2743-1.2188 0.7168-0.22 0.13-0.37062 0.21477-0.45312 0.25977-0.1525 0.07625-0.26258 0.119-0.33008 0.125-0.03625 0.0062-0.07383-0.000078-0.11133-0.01758-0.0375-0.01625-0.08367-0.05393-0.13867-0.11524-0.055-0.06125-0.19844-0.27226-0.42969-0.63476l-0.39648 0.23633c0.38 0.56875 0.76711 1.1823 1.1621 1.8398 0.35125 0.585 0.65078 1.114 0.89453 1.584l0.39648-0.24023c-0.22-0.395-0.34349-0.62597-0.36719-0.69727-0.024-0.06995-0.03044-0.12396-0.02344-0.16016 0.0088-0.03625 0.02805-0.07047 0.06055-0.10547 0.0825-0.08375 0.3132-0.25 0.68945-0.5 0.165-0.11875 0.55-0.35961 1.1562-0.72461l1.9121-1.1484c0.31125-0.1875 0.65359-0.38359 1.0273-0.58984 0.2625-0.13125 0.41323-0.20159 0.45703-0.21289 0.0313-0.0085 0.06677-0.0072 0.10547 0.0078 0.0375 0.015 0.08703 0.05891 0.14453 0.12891 0.045 0.05375 0.18719 0.26828 0.42969 0.64453l0.39648-0.23828c-0.29875-0.43625-0.6232-0.94274-0.9707-1.5215-0.39875-0.665-0.76094-1.2998-1.0859-1.9023zm76.152 4.1074-1.2109 1.4688-1.2598 1.375c-0.555 0.6375-0.97039 1.236-1.2441 1.791-0.27375 0.555-0.44347 1.1431-0.50977 1.7656-0.06625 0.62125 0.0061 1.2171 0.21484 1.7871 0.20875 0.57 0.56883 1.0784 1.0801 1.5234 0.40125 0.34875 0.83453 0.59523 1.3008 0.74023 0.2775 0.085 0.57664 0.11766 0.90039 0.09766 0.3225-0.02125 0.65695-0.10148 1.002-0.24023 0.3425-0.1375 0.69031-0.35172 1.0391-0.63672 0.35-0.28625 0.76766-0.70883 1.2539-1.2676 0.21-0.2425 0.48688-0.56922 0.82812-0.98047 0.47-0.5725 0.79445-0.96086 0.9707-1.1621l1.5293-1.6855-0.33203-0.28906c-0.33375 0.30875-0.52964 0.48625-0.58594 0.53125-0.0575 0.0438-0.10594 0.06917-0.14844 0.07617-0.0276 0.0037-0.0586-0.000418-0.0898-0.01172-0.13125-0.06-0.38773-0.24695-0.77148-0.56445-0.68875-0.5775-1.21-1.0192-1.5625-1.3242l-0.6543-0.57031c-0.80125-0.69625-1.3645-1.2182-1.6895-1.5645 0.0212-0.15625 0.05461-0.32094 0.09961-0.49219 0.0225-0.09 0.03792-0.15195 0.04492-0.18945l-0.20508-0.17774zm-72.861 0.92188c-0.35625 0.36125-1.4395 1.303-3.252 2.8242-0.23125 0.195-0.59148 0.49203-1.084 0.89453-0.49125 0.4025-0.82766 0.63497-1.0039 0.70117-0.035 0.0128-0.06852 0.0138-0.10352 0-0.1025-0.04-0.32391-0.25102-0.66016-0.63477l-0.35352 0.29688c0.43 0.4625 0.77375 0.84805 1.0312 1.1543 0.27125 0.32375 0.56078 0.69102 0.86328 1.1035l0.35547-0.29688c-0.35375-0.43125-0.53698-0.70531-0.55078-0.82031-0.0075-0.07 0.03425-0.1525 0.12305-0.25 0.22625-0.25375 1.0659-0.9943 2.5234-2.2168l0.95508-0.77148c-0.0125 0.775-0.07852 1.7887-0.19726 3.0449-0.1625 1.7438-0.33281 3.255-0.50781 4.5312l0.39258 0.42969 0.60938 0.6875c0.16375 0.19375 0.40461 0.50625 0.72461 0.9375l0.35352-0.29688c-0.26875-0.36-0.42495-0.58297-0.46875-0.66797-0.0437-0.085-0.0655-0.15518-0.0625-0.20898 0.0025-0.055 0.02792-0.11349 0.07422-0.17969 0.045-0.06625 0.16633-0.18352 0.36133-0.35352l1.166-1.0117 1.3027-1.0938c0.36125-0.3025 0.66024-0.5418 0.89648-0.7168 0.4175-0.30375 0.68859-0.48839 0.80859-0.55469 0.09-0.0475 0.15747-0.06845 0.20117-0.06445 0.045 0.0038 0.08695 0.01862 0.12695 0.04492 0.0599 0.04368 0.2578 0.24693 0.5918 0.61328l0.35352-0.29688c-0.47875-0.52125-0.85023-0.93766-1.1152-1.2539-0.07125-0.085-0.35617-0.4393-0.85742-1.0605l-0.33594 0.28125c0.04 0.0425 0.06964 0.07495 0.08594 0.09375 0.08 0.09625 0.19781 0.25812 0.35156 0.48438 0.0563 0.08375 0.0868 0.14977 0.0918 0.19727s-0.0029 0.09086-0.02539 0.13086c-0.04625 0.0825-0.22164 0.26352-0.52539 0.54102-0.435 0.4075-0.8632 0.78812-1.2832 1.1406l-2.0274 1.7012c0.36625-3.5562 0.60289-6.2684 0.71289-8.1309-0.19125-0.31-0.37648-0.61758-0.55274-0.92383l-0.08984-0.0293zm71.73 1.418c0.265 0.20875 0.79414 0.65641 1.5879 1.3477l0.91992 0.79883c1.0462 0.91125 1.7555 1.5364 2.123 1.8789-0.2175 0.32375-0.43133 0.60836-0.64258 0.84961-0.56 0.645-1.0259 1.0853-1.3984 1.3203-0.3725 0.23375-0.75469 0.36031-1.1484 0.38281-0.395 0.0225-0.77297-0.04297-1.1367-0.19922-0.36375-0.155-0.6982-0.36586-1.002-0.63086-0.3325-0.29-0.60375-0.60477-0.8125-0.94727-0.20875-0.34125-0.34646-0.685-0.41016-1.0312-0.0637-0.34625-0.07018-0.65453-0.02148-0.92578 0.04875-0.2725 0.14953-0.55234 0.30078-0.83984 0.2075-0.38875 0.49172-0.79414 0.85547-1.2129 0.2325-0.2675 0.49516-0.52977 0.78516-0.79102zm-5.6504 5.2832-1.125 0.9082-1.1875 0.83398 0.2793 0.37109c0.40625-0.29 0.66469-0.4455 0.77344-0.4668 0.075-0.0125 0.1375 0.01453 0.1875 0.08203 0.07125 0.09375 0.16852 0.3982 0.29102 0.9082l0.16016 0.66406-2.6172 1.9746-1.1172-0.60156c-0.19625-0.10125-0.32055-0.18716-0.37305-0.25586-0.0425-0.05625-0.04542-0.11524-0.01172-0.17774 0.03375-0.0625 0.24688-0.25352 0.64062-0.57226l-0.27734-0.36914-1.7188 1.3555-1.4082 1 0.27734 0.37109c0.10375-0.065 0.18328-0.11333 0.23828-0.14453 0.1625-0.10995 0.26695-0.17391 0.31445-0.19141 0.04625-0.0172 0.09313-0.02734 0.14063-0.02734 0.04625-0.0013 0.10643 0.01276 0.17773 0.03906l0.49414 0.23828 0.75 0.34961 5.5801 2.7461 0.71875-0.54296-0.28516-1.2969-0.75195-3.7207c-0.1425-0.705-0.2369-1.178-0.2832-1.418-0.09005-0.5175-0.13953-0.81875-0.14453-0.90625-0.005-0.08625 0.0014-0.15714 0.01758-0.21094 0.0163-0.055 0.04539-0.10766 0.08789-0.16016 0.04125-0.0525 0.19367-0.19016 0.45117-0.41016l-0.281-0.367zm-58.279 2.183c-0.3575-0.01375-0.67281 0.03031-0.94531 0.13281-0.27375 0.1025-0.52883 0.27594-0.76758 0.52344-0.23875 0.24625-0.45031 0.49976-0.63281 0.75976l-0.712 1.021c-0.21125 0.3-0.5118 0.70188-0.9043 1.2031-0.39 0.5025-0.62216 0.77672-0.69336 0.82422-0.07125 0.0475-0.13511 0.0685-0.19141 0.0625-0.1125-0.01375-0.32774-0.13297-0.64648-0.35547l-0.26562 0.38086 1.1602 0.75977c0.06375 0.0401 0.11062 0.06854 0.14062 0.08984 0.11625 0.08125 0.47477 0.3518 1.0723 0.81055l0.26562-0.37891c-0.36875-0.27125-0.59177-0.47016-0.66797-0.59766-0.0387-0.06125-0.05392-0.12305-0.04492-0.18555 0.015-0.10125 0.14562-0.33773 0.39063-0.70898 0.10375-0.17625 0.42328-0.64766 0.95703-1.4102l0.62109-0.88281c0.43-0.61625 0.78289-0.99195 1.0566-1.127 0.275-0.13625 0.60242-0.17263 0.98242-0.11133 0.38 0.0625 0.81031 0.2607 1.2891 0.5957 0.41625 0.29125 0.72508 0.58445 0.92383 0.87695 0.1975 0.29125 0.30456 0.56672 0.31836 0.82422 0.015 0.25875-0.05609 0.53242-0.21484 0.82617-0.07625 0.13125-0.30062 0.46219-0.67188 0.99219l-0.35156 0.50977-0.70312 1.0059c-0.4275 0.61-0.73141 0.98641-0.91016 1.1289-0.07 0.0625-0.13898 0.0881-0.20898 0.0781-0.14-0.0162-0.39648-0.15547-0.77148-0.41797l-0.26562 0.3789 0.19531 0.12696 0.71484 0.4707 0.70703 0.47461 1.6543 1.2188 0.26367-0.37891-0.63867-0.53906c-0.04-0.0925-0.05773-0.16138-0.05273-0.20508 0.0087-0.08 0.05206-0.18726 0.13086-0.32226 0.21375-0.3325 0.46164-0.70242 0.74414-1.1074l0.77344-1.1035 0.58789-0.82812c0.32-0.4575 0.50815-0.74312 0.56445-0.85938 0.09375-0.18375 0.14852-0.40656 0.16602-0.66406s-0.02656-0.53172-0.13281-0.82422-0.295-0.59586-0.5625-0.91211c-0.36875-0.435-0.81203-0.83547-1.332-1.1992-0.445-0.31125-0.86547-0.54562-1.2617-0.70312-0.395-0.15625-0.77016-0.24141-1.1289-0.25391zm57.799 1.8066 0.61328 2.9883-2.7363-1.3887c0.2975-0.245 0.64055-0.51219 1.0293-0.80469 0.40125-0.3025 0.76625-0.56867 1.0938-0.79492zm-19.855 6.2305c-0.14201 0.011-0.29164 0.0313-0.44726 0.0645-0.58375 0.12375-1.062 0.39274-1.4395 0.80274s-0.59258 0.89382-0.64258 1.4551l0.19727-0.004c0.14875-0.365 0.29812-0.64344 0.45312-0.83594 0.28375-0.35375 0.64695-0.57883 1.0957-0.67383 0.37875-0.0813 0.73672-0.0516 1.0742 0.0859 0.3375 0.13625 0.54761 0.39219 0.62891 0.77344 0.09125 0.43-0.02234 0.81695-0.33984 1.1582-0.3175 0.3425-0.78047 0.68344-1.3867 1.0234l0.04102 0.13281c0.06375-0.0212 0.11927-0.0383 0.16797-0.0508 0.04875-0.0125 0.09984-0.0239 0.15234-0.0352 0.90125-0.19125 1.5942-0.0896 2.0742 0.30664 0.285 0.235 0.46612 0.53766 0.54492 0.91016 0.0825 0.38625 0.0193 0.77461-0.18945 1.1621-0.2075 0.38875-0.59672 0.64242-1.168 0.76367-0.2575 0.055-0.59266 0.0223-1.0039-0.0977-0.41125-0.11995-0.73008-0.15687-0.95508-0.10937-0.15125 0.0325-0.25078 0.0991-0.30078 0.19531-0.0515 0.0975-0.06763 0.1905-0.04883 0.2793 0.03125 0.145 0.16188 0.2593 0.39062 0.3418 0.22875 0.0825 0.59445 0.0691 1.0957-0.0371 1.1275-0.23875 1.9435-0.67414 2.4473-1.3066 0.5025-0.63375 0.68492-1.2795 0.54492-1.9395-0.11875-0.5575-0.44109-0.97219-0.96484-1.2422-0.27875-0.13999-0.63024-0.23937-1.0527-0.29687 0.2925-0.27125 0.5007-0.50352 0.62695-0.69727 0.22175-0.3425 0.29711-0.68468 0.22461-1.0234-0.08125-0.38375-0.32406-0.68696-0.72656-0.90821-0.30281-0.165-0.66772-0.23019-1.0938-0.19726zm-18.885 0.16406-2.4609 0.49805-0.0293 0.14258c0.16-0.0238 0.32922-0.0416 0.51172-0.0567 0.18125-0.0138 0.32344-0.0108 0.42969 0.0117 0.16375 0.035 0.26297 0.10172 0.29297 0.19922 0.031 0.0975 0.02773 0.2318-0.0098 0.4043l-1.0273 4.834c-0.06625 0.315-0.18547 0.50196-0.35547 0.56446-0.17125 0.0625-0.50445 0.0524-1.002-0.0312l-0.03516 0.16601 3.4531 0.73438 0.0293-0.14258c-0.455-0.11125-0.75961-0.22133-0.91211-0.33008-0.1515-0.10875-0.20008-0.29891-0.14258-0.5664l1.3418-6.3066c0.007-0.0312 0.0098-0.0505 0.0098-0.0605 0-0.009-0.007-0.0236-0.01953-0.0449l-0.07422-0.0156zm14.736 0.53516c-1.3038 0.0912-2.4521 0.54859-3.4434 1.3711-1.1075 0.97375-1.6168 2.0851-1.5293 3.3301 0.0675 0.9675 0.42336 1.7217 1.0684 2.2617 0.64375 0.54 1.3321 0.78362 2.0684 0.73242 0.78375-0.055 1.4037-0.35766 1.8574-0.91016 0.455-0.55125 0.66024-1.1499 0.61524-1.7949-0.05125-0.71875-0.31422-1.2551-0.79297-1.6113-0.47875-0.355-1.0498-0.51234-1.7148-0.46484-0.33875 0.0238-0.6718 0.10328-0.99805 0.23828-0.18375 0.0763-0.40164 0.18859-0.65039 0.33984 0.0725-0.39375 0.2307-0.79453 0.4707-1.207 0.24-0.41125 0.50352-0.755 0.79102-1.0312 0.28-0.2725 0.60266-0.49195 0.97266-0.6582 0.3675-0.16625 0.81063-0.30828 1.3281-0.42578l-0.04297-0.16992zm-9.0762 0.25976c-0.77-0.0538-1.4198 0.14852-1.9473 0.60352-0.52875 0.45625-0.81729 1.0628-0.87109 1.8203-0.04125 0.59375 0.12938 1.1199 0.51562 1.5762 0.385 0.4575 0.93062 0.71172 1.6406 0.76172 0.17875 0.0125 0.37961 0.006 0.59961-0.0215 0.4225-0.045 0.79469-0.15844 1.1172-0.33594l0.22852-0.12305c-0.0875 0.29375-0.27797 0.65047-0.57422 1.0742-0.29625 0.4225-0.67828 0.7975-1.1445 1.125-0.33125 0.23-0.76031 0.41328-1.2891 0.55078-0.295 0.0762-0.66281 0.14161-1.1016 0.19531l0.04883 0.21876c0.69625-0.0263 1.2765-0.093 1.7402-0.19922 0.83-0.18875 1.5261-0.51688 2.0898-0.98438 0.485-0.405 0.86438-0.87672 1.1406-1.418 0.27625-0.54125 0.4332-1.0811 0.4707-1.6211 0.05375-0.7675-0.14726-1.4812-0.60352-2.1387-0.45625-0.65875-1.143-1.0202-2.0605-1.084zm-0.09961 0.28516c0.56125 0.04 0.97242 0.3014 1.2324 0.78516 0.2588 0.48499 0.36109 1.0986 0.30859 1.8398-0.01 0.14375-0.02979 0.32859-0.05859 0.55859-0.0274 0.22875-0.05031 0.35953-0.07031 0.39453-0.0475 0.09-0.22781 0.19289-0.53906 0.30664-0.31125 0.115-0.60812 0.16138-0.89062 0.14258-0.61625-0.0438-1.0267-0.2932-1.2305-0.75195-0.20505-0.45875-0.28945-0.94945-0.25195-1.4707 0.04375-0.63125 0.20281-1.0965 0.47656-1.3965 0.275-0.29875 0.61469-0.437 1.0234-0.4082zm6.7949 2.8926c0.70125-0.05 1.2197 0.22125 1.5547 0.8125 0.20125 0.35375 0.31906 0.76773 0.35156 1.2402 0.03375 0.48375-0.05 0.91477-0.25 1.291-0.2 0.37625-0.54992 0.58023-1.0449 0.61523-0.6275 0.0438-1.1029-0.20062-1.4316-0.73437-0.32875-0.535-0.51339-1.0919-0.55469-1.6719-0.03125-0.4475 0.0098-0.7714 0.12109-0.97265 0.19-0.34125 0.60641-0.53508 1.2539-0.58008z" fill-rule="evenodd"/>
  <path d="m58.681 17.137c-2.5423 0.03193-5.3967 0.35281-8.4883 1.1562 0 0.000001-7.4003 1.2675-13.633 10.031 0 0-3.8941 5.3541-3.6016 16.65-0.000001 0 0.58336 8.4714 8.5684 16.066 0 0 1.6713 1.6962 4.9863 4.1211h0.21289c1.8775 1.36 4.2635 3.1015 7.166 4.7402 0 0 7.3714 4.2688 9.8359 7.8867 1.8642 2.7365 2.4188 5.8704 1.5566 9.3477-0.30416 1.2267-1.2676 2.9139-1.6855 3.6953-0.41793 0.78137-0.51447 0.98764-0.8457 1.5625 0 0 0.92594-0.74203 2.0234-2.1445 1.8813-2.1426 3.2537-5.7811 3.5273-8.7598 0.3403-3.7037-1.3241-7.5414-3.2148-10.809-1.2552-1.8514-2.6195-3.8648-4.1875-5.3574-2.0162-2.355-4.8156-5.036-7.7871-7.8848-4.2203-4.046-6.782-6.2048-7.8887-11.395-0.47683-2.2358-0.97258-4.8684-0.48633-9.0547-0.000001 0 1.3623-7.0111 4.9648-10.809 0 0 3.798-4.9658 9.1543-6.4258 0 0 3.7968-1.3647 8.373-0.58594l3.8965 0.39062s-4.8203-2.5196-12.447-2.4238zm-17.057 3.883c-0.000002 0-12.854 5.9405-17.625 17.918 0 0-3.5075 9.6394 0.875 19.766 0 0 1.263 2.9655 4.2324 6.459h0.13281c2.705 3.1388 6.7881 6.8347 12.578 9.0234 0 0 5.6068 1.968 9.4453 3.3105 2.3411 0.81882 4.5372 2.0272 6.6426 3.4082 1.166 0.76483 2.0437 1.9097 2.6074 3.1172 0 0 1.1182 2.9964 0.76758 6.2324h0.05469c-0.14526 0.66285-0.27029 1.2678-0.5293 1.9473 0 0 0.85164-0.52781 1.6816-1.9453 1.2539-2.0755 1.9255-5.2501 1.5312-7.8887-0.4353-2.913-2.5355-5.4614-5.0625-7.4004-2.3712-1.8194-2.4354-1.9488-9.0566-5.8438 0 0-2.3651-1.5313-5.3047-3.7988h-0.21289c-3.4012-2.6388-7.5131-6.444-9.6719-10.709 0 0-4.967-8.959-3.0195-17.334 0 0 0.68196-5.4524 5.0645-11.295 0 0 0.97203-1.557 3.8945-3.8945l0.97461-1.0723zm19.279 2.0449-0.39062 0.7793c-0.87625 2.8238-4.0898 3.5059-4.0898 3.5059 3.0188 0.77875 3.8945 4.4785 3.8945 4.4785 1.1688-4.09 4.7715-3.9922 4.7715-3.9922-3.9925-0.97375-4.1855-4.7715-4.1855-4.7715zm18.111 14.803s-2.0457 2.3361-2.5332 4.0898c0 0-14.118-9.2523-25.9 10.223 3.8917 4.5453 8.0972 8.9115 12.279 12.982 4.1821 4.0709 6.7351 10.967 6.709 13.449-0.06551 6.2203-1.1019 8.3017-3.668 12.217-0.39828 0.60766-0.43674 0.64847-0.47852 0.69336 0.16372-0.10755 0.70216-0.4687 1.6602-1.2695 3.1943-2.2203 5.8206-5.9834 8.2344-9.3477 3.1055-4.3378 5.5024-10.217 7.6035-15.742 0.28823-0.69804 0.61257-1.6621 0.86523-2.5625-0.0071 0.9073-0.01232 1.8209-0.02344 2.7246l-0.07422 10.129s-0.000312 3.8951-2.7266 2.1426c-0.73214 1.9653-1.6603 4.1601-2.5332 6.2305 0 0 4.4808 0.6825 7.207-2.5312 0 0 0.0019-0.02251 0.002-0.02344h-0.0039c0.53982-5.0114 1.3569-10.591 2.0957-16.111 0.25388-1.6978 0.52228-3.5163 0.82812-5.4824l-4.2852-4.4785c0 0.000001-3.7982 6.2318-10.127 8.373 0 0-5.6472 0.97446-6.5234-5.8418 0 0.000001-0.87688-5.452 2.1406-6.4258 0 0 3.4084-0.77938 5.6484 7.9844 0 0 2.4342 0.48531 5.3555-3.1172l-1.752-18.306zm-13.591 53.654c-0.01754 0.01152-0.08136 0.05636-0.08789 0.06055 0.0029 0.02763 0.044-0.01338 0.08789-0.06055zm-0.08789 0.06055c-0.0012-0.01172-0.01063-0.01145-0.05078 0.03516 0 0 0.047-0.03273 0.05078-0.03516zm-43.478-50.212s-3.7984 6.5251-3.5059 19.768c0 0 0.0095 1.6197 0.55273 4.0234h0.03125c0.9275 3.9738 3.4166 10.051 9.543 14.77 5.9258 4.3747 15.058 5.5813 22.299 6.4277 2.8516 0.08812 5.8152 1.4787 6.875 3.8945s0.30036 2.4969-0.44727 4.1855c0 0 2.1764-0.85359 2.8555-3.6094 0.205-1.335 0.18281-3.6347-0.61719-5.8359 0.000001 0-0.84132-2.0665-3.6113-3.7227-2.0142-1.2043-4.5005-2.3543-7.002-3.0938-2.447-0.72334-9.9328-2.5312-16.164-7.1074 0 0-2.8169-2.377-5.5195-5.7461h-0.13281c-1.8538-2.3375-3.6327-5.2104-4.3789-8.2754 0 0-2.2374-6.718-1.2637-12.561l0.48633-3.1172zm0.48633 34.178s0.39648 2.3178 2.5879 5.3574 5.8973 6.51 9.2227 9.3477c2.9949 2.1018 6.9425 4.4421 11.656 6.0371 0 0 7.0105 1.1673 10.029-2.2402 0 0 1.2145-2.0116 0.60938-3.2207-0.407-0.814-1.266-1.968-2.263-2.33-1.018-0.369-2.258-0.497-8.082-0.973-3.039-0.248-6.807-0.839-12.076-2.824-3.415-1.311-6.575-3.551-8.666-5.746-2.092-2.194-3.018-3.408-3.018-3.408z" fill-rule="evenodd" fill="#ffc904"/>
 </g>
</svg>
