<svg width="414" height="396" xmlns="http://www.w3.org/2000/svg" xmlns:xlink="http://www.w3.org/1999/xlink" xml:space="preserve" overflow="hidden"><defs><clipPath id="clip0"><rect x="453" y="261" width="414" height="396"/></clipPath></defs><g clip-path="url(#clip0)" transform="translate(-453 -261)"><path d="M0 0 527.597 0 527.597 395.698 0 395.698Z" fill="#FFFFFF" transform="matrix(1 0 0 1.00076 429.274 261)"/><path d="M0 395.698 527.597 395.698 527.597 0 0 0Z" fill="#FFFFFF" transform="matrix(1 0 0 1.00076 429.274 261)"/><path d="M68.7348 352.928 478.501 352.928 478.501 29.741 68.7348 29.741Z" fill="#FFFFFF" transform="matrix(1 0 0 1.00076 429.274 261)"/><path d="M116.635 352.928 116.635 348.836" stroke="#262626" stroke-width="0.666158" fill="none" transform="matrix(1 0 0 1.00076 429.274 261)"/><path d="M187.95 352.928 187.95 348.836" stroke="#262626" stroke-width="0.666158" fill="none" transform="matrix(1 0 0 1.00076 429.274 261)"/><path d="M259.265 352.928 259.265 348.836" stroke="#262626" stroke-width="0.666158" fill="none" transform="matrix(1 0 0 1.00076 429.274 261)"/><path d="M330.579 352.928 330.579 348.836" stroke="#262626" stroke-width="0.666158" fill="none" transform="matrix(1 0 0 1.00076 429.274 261)"/><path d="M401.893 352.928 401.893 348.836" stroke="#262626" stroke-width="0.666158" fill="none" transform="matrix(1 0 0 1.00076 429.274 261)"/><path d="M473.208 352.928 473.208 348.836" stroke="#262626" stroke-width="0.666158" fill="none" transform="matrix(1 0 0 1.00076 429.274 261)"/><text font-family="Arial,Arial_MSFontService,sans-serif" font-weight="400" font-size="10" transform="matrix(1.33232 0 0 1.33333 531.92 635)">     <tspan fill="#262626" font-size="10" x="0" y="0">-</tspan><tspan fill="#262626" font-size="10" x="3" y="0">2</tspan><tspan fill="#262626" font-size="10" x="9" y="0">0</tspan><tspan fill="#262626" font-size="10" x="15" y="0">0</tspan><tspan font-size="10" x="21" y="0">    </tspan><tspan font-size="10" x="53.5266" y="0">     </tspan><tspan fill="#262626" font-size="10" x="53.5266" y="0">-</tspan><tspan fill="#262626" font-size="10" x="56.5266" y="0">1</tspan><tspan fill="#262626" font-size="10" x="62.5266" y="0">0</tspan><tspan fill="#262626" font-size="10" x="68.5266" y="0">0</tspan><tspan font-size="10" x="74.5266" y="0">    </tspan><tspan font-size="10" x="114.554" y="0">     </tspan><tspan fill="#262626" font-size="10" x="114.554" y="0">0</tspan><tspan font-size="10" x="120.554" y="0">    </tspan><tspan font-size="10" x="162.081" y="0">     </tspan><tspan fill="#262626" font-size="10" x="162.081" y="0">1</tspan><tspan fill="#262626" font-size="10" x="168.081" y="0">0</tspan><tspan fill="#262626" font-size="10" x="174.081" y="0">0</tspan>    <tspan font-size="10" x="215.607" y="0">     </tspan><tspan fill="#262626" font-size="10" x="215.607" y="0">2</tspan><tspan fill="#262626" font-size="10" x="221.607" y="0">0</tspan><tspan fill="#262626" font-size="10" x="227.607" y="0">0</tspan>    <tspan font-size="10" x="269.134" y="0">     </tspan><tspan fill="#262626" font-size="10" x="269.134" y="0">3</tspan><tspan fill="#262626" font-size="10" x="275.134" y="0">0</tspan><tspan fill="#262626" font-size="10" x="281.134" y="0">0</tspan>    </text><path d="M68.7348 352.928 72.8266 352.928" stroke="#262626" stroke-width="0.666158" fill="none" transform="matrix(1 0 0 1.00076 429.274 261)"/><path d="M68.7348 281.613 72.8266 281.613" stroke="#262626" stroke-width="0.666158" fill="none" transform="matrix(1 0 0 1.00076 429.274 261)"/><path d="M68.7348 210.298 72.8266 210.298" stroke="#262626" stroke-width="0.666158" fill="none" transform="matrix(1 0 0 1.00076 429.274 261)"/><path d="M68.7348 138.983 72.8266 138.983" stroke="#262626" stroke-width="0.666158" fill="none" transform="matrix(1 0 0 1.00076 429.274 261)"/><path d="M68.7348 67.6691 72.8266 67.6691" stroke="#262626" stroke-width="0.666158" fill="none" transform="matrix(1 0 0 1.00076 429.274 261)"/><text font-family="Arial,Arial_MSFontService,sans-serif" font-weight="400" font-size="10" transform="matrix(1.33232 0 0 1.33333 483.363 620)">     <tspan fill="#262626" font-size="10" x="0" y="0">0</tspan><tspan font-size="10" x="6" y="0">    </tspan><tspan font-size="10" x="-12" y="-54">     </tspan><tspan fill="#262626" font-size="10" x="-12" y="-54">1</tspan><tspan fill="#262626" font-size="10" x="-6" y="-54">0</tspan><tspan fill="#262626" font-size="10" x="0" y="-54">0</tspan><tspan font-size="10" x="6" y="-54">    </tspan><tspan font-size="10" x="-12" y="-107.25">     </tspan><tspan fill="#262626" font-size="10" x="-12" y="-107.25">2</tspan><tspan fill="#262626" font-size="10" x="-6" y="-107.25">0</tspan><tspan fill="#262626" font-size="10" x="0" y="-107.25">0</tspan><tspan font-size="10" x="6" y="-107.25">    </tspan><tspan font-size="10" x="-12" y="-161.25">     </tspan><tspan fill="#262626" font-size="10" x="-12" y="-161.25">3</tspan><tspan fill="#262626" font-size="10" x="-6" y="-161.25">0</tspan><tspan fill="#262626" font-size="10" x="0" y="-161.25">0</tspan><tspan font-size="10" x="6" y="-161.25">    </tspan><tspan font-size="10" x="-12" y="-214.5">     </tspan><tspan fill="#262626" font-size="10" x="-12" y="-214.5">4</tspan><tspan fill="#262626" font-size="10" x="-6" y="-214.5">0</tspan><tspan fill="#262626" font-size="10" x="0" y="-214.5">0</tspan><tspan font-size="10" x="6" y="-214.5">    </tspan></text><path d="M68.7348 352.928 478.501 352.928" stroke="#262626" stroke-width="0.666158" stroke-linecap="square" stroke-dasharray="21.317 0" fill="none" transform="matrix(1 0 0 1.00076 429.274 261)"/><path d="M68.7348 352.928 68.7348 29.741" stroke="#262626" stroke-width="0.666158" stroke-linecap="square" stroke-dasharray="21.317 0" fill="none" transform="matrix(1 0 0 1.00076 429.274 261)"/><path d="M259.265 352.928 259.387 349.695 259.51 346.463 259.634 343.231 259.759 339.999 259.885 336.767 260.013 333.534 260.141 330.304 260.27 327.071 260.398 323.839 260.529 320.607 260.658 317.376 260.787 314.144 260.917 310.912 261.045 307.681 261.174 304.449 261.302 301.218 261.43 297.986 261.557 294.755 261.683 291.523 261.808 288.292 261.933 285.061 262.057 281.827 262.181 278.594 262.304 275.36 262.426 272.128 262.547 268.895 262.669 265.661 262.789 262.429 262.908 259.195 263.027 255.962 263.144 252.73 263.262 249.496 263.377 246.264 263.492 243.03 263.607 239.798 263.719 236.565 263.829 233.332 263.938 230.1 264.046 226.868 264.153 223.636 264.259 220.404 264.365 217.171 264.469 213.939 264.571 210.707 264.672 207.475 264.774 204.243 264.872 201.01 264.971 197.778 265.068 194.546 265.164 191.314 265.256 188.082 265.345 184.851 265.435 181.619 265.522 178.386 265.608 175.155 265.693 171.923 265.777 168.691 265.858 165.46 265.939 162.228 266.018 158.997 266.095 155.765 266.171 152.533 266.246 149.302 266.319 146.07 266.391 142.839 266.458 139.607 266.523 136.376 266.586 133.144 266.648 129.913 266.708 126.682 266.767 123.45 266.824 120.219 266.88 116.987 266.933 113.756 266.985 110.525 267.036 107.293 267.085 104.062 267.132 100.831 267.177 97.5993 267.22 94.3679 267.257 91.1366 267.293 87.9054 267.328 84.674 267.361 81.4427 267.392 78.2113 267.421 74.98 267.449 71.7486 267.474 68.5174 267.498 65.286 267.52 62.0547 267.54 58.8233 267.557 55.5921 267.573 52.3607 267.586 49.1293 267.598 45.898 267.609 42.6666 267.617 39.4352 267.622 36.2038 267.628 32.9724 267.629 29.741" stroke="#0071BC" stroke-width="0.666158" stroke-linejoin="round" fill="none" transform="matrix(1 0 0 1.00076 429.274 261)"/><path d="M279.589 352.928 279.712 349.697 279.834 346.466 279.959 343.235 280.085 340.004 280.211 336.772 280.339 333.541 280.467 330.31 280.596 327.079 280.725 323.849 280.855 320.618 280.984 317.387 281.113 314.156 281.242 310.925 281.372 307.694 281.501 304.463 281.629 301.231 281.757 298 281.883 294.769 282.01 291.539 282.136 288.306 282.262 285.074 282.386 281.843 282.509 278.611 282.633 275.379 282.756 272.148 282.877 268.916 282.998 265.684 283.118 262.451 283.238 259.219 283.357 255.987 283.474 252.755 283.591 249.525 283.707 246.296 283.822 243.065 283.935 239.835 284.048 236.606 284.159 233.375 284.268 230.145 284.377 226.915 284.485 223.685 284.592 220.454 284.697 217.223 284.801 213.992 284.905 210.763 285.006 207.532 285.106 204.301 285.205 201.07 285.303 197.841 285.399 194.61 285.494 191.379 285.587 188.148 285.678 184.917 285.767 181.687 285.856 178.456 285.943 175.223 286.028 171.993 286.112 168.762 286.193 165.531 286.275 162.3 286.353 159.069 286.43 155.837 286.506 152.606 286.58 149.375 286.653 146.144 286.724 142.912 286.792 139.681 286.857 136.45 286.921 133.219 286.983 129.987 287.045 126.756 287.103 123.524 287.162 120.293 287.217 117.062 287.271 113.83 287.322 110.599 287.372 107.367 287.42 104.136 287.467 100.904 287.511 97.673 287.554 94.4416 287.592 91.21 287.63 87.9786 287.664 84.7471 287.699 81.5157 287.731 78.2842 287.76 75.0528 287.788 71.8213 287.815 68.5897 287.839 65.3583 287.86 62.1268 287.88 58.8954 287.899 55.6639 287.915 52.4325 287.928 49.2011 287.94 45.9695 287.951 42.7381 287.959 39.5067 287.965 36.2753 287.969 33.0438 287.971 29.8124" stroke="#D85218" stroke-width="0.666158" stroke-linejoin="round" fill="none" transform="matrix(1 0 0 1.00076 429.274 261)"/><path d="M267.629 29.741 270.182 29.7482 272.734 29.7599 275.283 29.7714 277.824 29.7775 280.364 29.7838 282.901 29.7947 285.437 29.8058 287.971 29.8124" stroke="#ECB01F" stroke-width="0.666158" stroke-linejoin="round" fill="none" transform="matrix(1 0 0 1.00076 429.274 261)"/></g></svg>